<svg width="56" height="56" viewBox="0 0 56 56" fill="none" xmlns="http://www.w3.org/2000/svg">
<path d="M29.6422 26.1558V38.3618C29.6422 38.8243 29.4585 39.2678 29.1314 39.5948C28.8044 39.9218 28.3609 40.1055 27.8985 40.1055C27.436 40.1055 26.9925 39.9218 26.6655 39.5948C26.3385 39.2678 26.1547 38.8243 26.1547 38.3618V26.1558C26.1547 25.6933 26.3385 25.2498 26.6655 24.9228C26.9925 24.5958 27.436 24.4121 27.8985 24.4121C28.3609 24.4121 28.8044 24.5958 29.1314 24.9228C29.4585 25.2498 29.6422 25.6933 29.6422 26.1558ZM37.672 25.9814L36.4514 38.1874C36.4273 38.416 36.4485 38.647 36.514 38.8673C36.5795 39.0875 36.6879 39.2927 36.8329 39.471C36.9779 39.6492 37.1568 39.797 37.3591 39.9059C37.5615 40.0148 37.7833 40.0827 38.012 40.1055C38.0708 40.1088 38.1297 40.1088 38.1886 40.1055C38.6205 40.105 39.0368 39.9442 39.3569 39.6543C39.677 39.3643 39.8782 38.9659 39.9214 38.5362L41.142 26.3302C41.1882 25.87 41.0498 25.4103 40.7571 25.0523C40.4644 24.6942 40.0415 24.467 39.5813 24.4208C39.1212 24.3746 38.6615 24.513 38.3034 24.8057C37.9454 25.0983 37.7182 25.5213 37.672 25.9814ZM18.1249 25.9814C18.0787 25.5213 17.8515 25.0983 17.4935 24.8057C17.1354 24.513 16.6757 24.3746 16.2156 24.4208C15.7554 24.467 15.3325 24.6942 15.0398 25.0523C14.7471 25.4103 14.6087 25.87 14.6549 26.3302L15.8755 38.5362C15.9189 38.9678 16.1216 39.3677 16.444 39.6579C16.7665 39.9481 17.1855 40.1077 17.6193 40.1055C17.6781 40.1088 17.737 40.1088 17.7958 40.1055C18.0237 40.0826 18.2448 40.0151 18.4465 39.9067C18.6482 39.7984 18.8267 39.6514 18.9716 39.4741C19.1165 39.2968 19.2251 39.0926 19.2911 38.8734C19.3571 38.6541 19.3793 38.424 19.3564 38.1962L18.1249 25.9814ZM52.2952 19.412L49.0105 44.055C48.8959 44.8914 48.483 45.6581 47.8477 46.2141C47.2125 46.77 46.3977 47.0777 45.5536 47.0804H10.2433C9.39919 47.0777 8.58444 46.77 7.9492 46.2141C7.31396 45.6581 6.90101 44.8914 6.78643 44.055L3.5017 19.412C3.46877 19.1657 3.48888 18.9151 3.56067 18.6772C3.63245 18.4393 3.75427 18.2195 3.91794 18.0325C4.08162 17.8455 4.28337 17.6956 4.50969 17.593C4.736 17.4903 4.98165 17.4372 5.23016 17.4372H14.9012L26.5907 4.08254C26.7543 3.897 26.9555 3.7484 27.181 3.64661C27.4065 3.54483 27.6511 3.49219 27.8985 3.49219C28.1458 3.49219 28.3904 3.54483 28.6159 3.64661C28.8414 3.7484 29.0426 3.897 29.2062 4.08254L40.8957 17.4372H50.5667C50.8153 17.4372 51.0609 17.4903 51.2872 17.593C51.5135 17.6956 51.7153 17.8455 51.879 18.0325C52.0426 18.2195 52.1645 18.4393 52.2362 18.6772C52.308 18.9151 52.3281 19.1657 52.2952 19.412ZM19.5352 17.4372H36.2617L27.8985 7.87948L19.5352 17.4372ZM48.5746 20.9247H7.22235L10.2433 43.5929H45.5536L48.5746 20.9247Z" fill="white"/>
</svg>
