<svg width="70" height="70" viewBox="0 0 70 70" fill="none" xmlns="http://www.w3.org/2000/svg">
<path d="M14.7437 9.46632C14.5516 9.24978 14.3184 9.07351 14.0577 8.94775C13.797 8.82198 13.5139 8.74922 13.2248 8.73367C12.9358 8.71811 12.6465 8.76009 12.3738 8.85716C12.1011 8.95422 11.8503 9.10445 11.6361 9.29914C11.4219 9.49382 11.2484 9.72909 11.1258 9.99131C11.0032 10.2535 10.9338 10.5375 10.9217 10.8267C10.9096 11.1159 10.9551 11.4047 11.0554 11.6762C11.1557 11.9477 11.309 12.1966 11.5062 12.4085L14.3089 15.4929C10.2285 19.8227 7.60798 25.3227 6.81585 31.2192C6.02372 37.1158 7.09987 43.1124 9.89293 48.3655L6.78941 57.6761C6.53234 58.4469 6.49503 59.2742 6.68167 60.065C6.86831 60.8559 7.27153 61.5792 7.84612 62.1538C8.42071 62.7283 9.14397 63.1316 9.93484 63.3182C10.7257 63.5048 11.5529 63.4675 12.3238 63.2105L21.6343 60.1069C26.4799 62.6846 31.9678 63.8049 37.4359 63.3328C42.904 62.8607 48.1187 60.8164 52.4507 57.4464L55.2562 60.5335C55.4483 60.7501 55.6815 60.9263 55.9422 61.0521C56.2029 61.1778 56.486 61.2506 56.7751 61.2662C57.0641 61.2817 57.3534 61.2397 57.6261 61.1427C57.8988 61.0456 58.1496 60.8954 58.3638 60.7007C58.578 60.506 58.7515 60.2707 58.8741 60.0085C58.9967 59.7463 59.0661 59.4624 59.0782 59.1731C59.0903 58.8839 59.0448 58.5952 58.9445 58.3236C58.8442 58.0521 58.691 57.8032 58.4937 57.5913L14.7437 9.46632ZM35 59.0624C30.7698 59.0653 26.6139 57.9513 22.9523 55.8331C22.684 55.6781 22.3858 55.5818 22.0776 55.5507C21.7693 55.5196 21.4579 55.5544 21.164 55.6526L10.9375 59.0624L14.3472 48.8359C14.4455 48.542 14.4803 48.2306 14.4491 47.9223C14.418 47.614 14.3218 47.3159 14.1668 47.0476C11.6037 42.6138 10.5221 37.4779 11.0793 32.387C11.6364 27.2961 13.8034 22.5157 17.2648 18.7413L49.4921 54.2034C45.3201 57.3592 40.2311 59.0655 35 59.0624ZM63.4375 34.9999C63.4375 39.6994 62.2745 44.3258 60.0523 48.4667C59.7749 48.9729 59.3087 49.3489 58.7552 49.5128C58.2018 49.6767 57.606 49.6153 57.0976 49.3418C56.5893 49.0684 56.2097 48.6051 56.0415 48.0529C55.8732 47.5008 55.9301 46.9045 56.1996 46.3941C58.5596 42.01 59.5016 37.0018 58.8956 32.0599C58.2897 27.118 56.1657 22.4858 52.8165 18.8018C49.4672 15.1177 45.0577 12.5634 40.1957 11.4908C35.3337 10.4182 30.2587 10.8802 25.6703 12.8132C25.1354 13.0384 24.5331 13.0419 23.9956 12.8229C23.4582 12.6039 23.0298 12.1805 22.8046 11.6456C22.5795 11.1108 22.576 10.5084 22.7949 9.97099C23.0139 9.43358 23.4374 9.00517 23.9722 8.77999C28.2959 6.96538 33.0011 6.24744 37.6692 6.69002C42.3374 7.13261 46.8238 8.722 50.7294 11.3168C54.6351 13.9117 57.8389 17.4315 60.056 21.5633C62.2731 25.6952 63.4347 30.3109 63.4375 34.9999Z" fill="#6248E6"/>
</svg>
