<svg width="150" viewBox="0 0 150 0" fill="none" xmlns="http://www.w3.org/2000/svg">
<path d="M6.55671e-08 -0.75C-0.414214 -0.75 -0.75 -0.414214 -0.75 -6.55671e-08C-0.75 0.414214 -0.414214 0.75 -6.55671e-08 0.75L0 0L6.55671e-08 -0.75ZM146 1.27637e-05C146 2.20915 147.791 4.00001 150 4.00001C152.209 4.00001 154 2.20915 154 1.34631e-05C154 -2.20913 152.209 -3.99999 150 -3.99999C147.791 -3.99999 146 -2.20913 146 1.27637e-05ZM0 0L-6.55671e-08 0.75L150 0.750013L150 1.31134e-05L150 -0.749987L6.55671e-08 -0.75L0 0Z" fill="#C5BDFF"/>
</svg>
