<svg width="38" height="40" viewBox="0 0 38 40" fill="none" xmlns="http://www.w3.org/2000/svg">
<path d="M18.2057 11.704C17.2345 13.9989 16.3452 16.0882 15.456 18.1841C12.8876 24.2596 10.3251 30.3351 7.74499 36.404C6.63339 39.0305 4.71442 39.9657 2.38592 39.0637C0.408444 38.2943 -0.539344 36.1984 0.314831 34.0494C1.46153 31.1443 2.7545 28.3122 4.00066 25.4601C7.2477 18.0448 10.4772 10.6295 13.7652 3.23409C15.0874 0.256028 17.7669 -0.831738 20.3236 0.673874C21.2012 1.19122 21.9968 2.21266 22.4941 3.21419C26.3379 10.9545 30.0998 18.7479 33.8909 26.5147C34.9791 28.7366 36.079 30.952 37.1789 33.1673C37.7113 34.2351 38.1793 35.3162 37.8517 36.603C37.3252 38.6657 35.3009 39.7866 33.0719 39.2428C31.7847 38.9244 30.8194 38.1417 30.1817 36.7953C26.5661 29.1943 22.9329 21.6065 19.2997 14.0122C18.9721 13.3091 18.6386 12.6127 18.2057 11.704Z" fill="url(#paint0_linear_971_840)"/>
<path d="M18.8906 38.1459C16.2675 38.1398 14.1991 36.0711 14.1934 33.4467C14.1876 30.742 16.3195 28.5684 18.983 28.5684C21.6696 28.5684 23.6918 30.6123 23.6976 33.3355C23.7034 36.0773 21.6292 38.1521 18.8906 38.1459Z" fill="url(#paint1_linear_971_840)"/>
<defs>
<linearGradient id="paint0_linear_971_840" x1="111.407" y1="19.6952" x2="-113.415" y2="19.6952" gradientUnits="userSpaceOnUse">
<stop stop-color="#7E6FFF"/>
<stop offset="1" stop-color="#62F2DB"/>
</linearGradient>
<linearGradient id="paint1_linear_971_840" x1="110.59" y1="33.3555" x2="-111.431" y2="33.3555" gradientUnits="userSpaceOnUse">
<stop stop-color="#7E6FFF"/>
<stop offset="1" stop-color="#62F2DB"/>
</linearGradient>
</defs>
</svg>
