<svg width="45" height="41" viewBox="0 0 45 41" fill="none" xmlns="http://www.w3.org/2000/svg">
<path d="M0 20.2355C0.089834 10.7409 6.3718 1.98957 14.5339 0.124176C15.9135 -0.189153 17.1968 0.0440209 18.0951 1.42121C18.8716 2.61623 18.9806 4.37962 18.0887 5.37061C17.37 6.17214 16.3241 6.70407 15.3488 7.09755C12.8463 8.1104 10.7608 9.76448 9.19515 12.1691C4.77403 18.9384 6.41671 31.0198 16.2343 33.7523C16.8118 33.9126 17.3957 34.1749 17.8962 34.532C19.0063 35.3116 19.4811 36.7034 19.1667 37.9932C18.8331 39.3631 17.8 40.2958 16.4781 40.3468C13.3724 40.4706 10.6582 39.1153 8.18773 37.1916C4.07461 33.9782 1.36676 29.6135 0.417083 23.9736C0.211748 22.7421 0.134751 21.4815 0 20.2355Z" fill="url(#paint0_linear_971_843)"/>
<path d="M37.9676 20.7104C37.9033 14.3762 34.7674 9.36854 29.5195 7.1864C28.718 6.85476 27.9048 6.54302 27.15 6.09863C25.7927 5.28945 25.272 3.80373 25.6933 2.21853C26.097 0.699648 27.2904 -0.129418 28.8759 0.0165004C32.082 0.321602 34.7967 1.91344 37.2773 4.12211C41.5481 7.92263 44.2277 12.8241 44.684 18.9859C45.1345 25.0548 43.4028 30.3609 39.5356 34.692C37.2597 37.2456 34.6504 39.1624 31.4677 39.8323C30.5199 40.0313 29.4727 39.9451 28.5249 39.7063C27.3665 39.4078 26.799 38.3201 26.682 37.0134C26.5708 35.7599 27.0681 34.7782 28.0335 34.2078C28.8818 33.7104 29.7945 33.3589 30.6838 32.9543C35.253 30.8981 38.0203 26.242 37.9676 20.7104Z" fill="url(#paint1_linear_971_843)"/>
<path d="M17.3453 16.6026C19.4191 16.6092 20.9215 18.0861 20.9087 20.093C20.8894 22.3382 19.4576 23.8682 17.3453 23.8814C15.3228 23.8947 13.6855 22.2852 13.6855 20.2718C13.6855 18.0861 15.1751 16.5959 17.3453 16.6026Z" fill="url(#paint2_linear_971_843)"/>
<path d="M28.3943 16.6026C30.5247 16.6092 31.9276 18.0066 31.9341 20.1194C31.9406 22.3447 30.4987 23.8481 28.3229 23.8812C26.251 23.9077 24.6727 22.2586 24.7116 20.0929C24.7441 17.9007 26.1276 16.5959 28.3943 16.6026Z" fill="url(#paint3_linear_971_843)"/>
<defs>
<linearGradient id="paint0_linear_971_843" x1="208.983" y1="20.1772" x2="-37.5973" y2="20.1772" gradientUnits="userSpaceOnUse">
<stop stop-color="#7E6FFF"/>
<stop offset="1" stop-color="#62F2DB"/>
</linearGradient>
<linearGradient id="paint1_linear_971_843" x1="190.493" y1="19.9688" x2="-34.3288" y2="19.9688" gradientUnits="userSpaceOnUse">
<stop stop-color="#7E6FFF"/>
<stop offset="1" stop-color="#62F2DB"/>
</linearGradient>
<linearGradient id="paint2_linear_971_843" x1="205.818" y1="20.2453" x2="-40.9104" y2="20.2453" gradientUnits="userSpaceOnUse">
<stop stop-color="#7E6FFF"/>
<stop offset="1" stop-color="#62F2DB"/>
</linearGradient>
<linearGradient id="paint3_linear_971_843" x1="206.771" y1="20.2415" x2="-42.8192" y2="20.2415" gradientUnits="userSpaceOnUse">
<stop stop-color="#7E6FFF"/>
<stop offset="1" stop-color="#62F2DB"/>
</linearGradient>
</defs>
</svg>
