<svg width="264" height="327" viewBox="0 0 264 327" fill="none" xmlns="http://www.w3.org/2000/svg">
<path d="M154.763 163.597C185.424 197.586 219.195 234.88 252.771 272.504C256.659 276.856 260.109 282.31 262.149 288.039C266.231 299.442 261.178 314.04 251.994 320.43C238.145 330.015 219.146 328.583 207.533 315.803C167.397 271.458 127.358 226.892 87.7074 181.996C74.0533 166.572 74.6365 145.529 88.242 129.939C122.11 91.2127 156.075 52.6517 190.137 14.2009C201.216 1.69611 214.433 -3.53714 229.836 2.52244C252.577 11.5016 258.942 39.0453 242.519 58.8766C232.606 70.8856 221.382 81.5173 211.42 93.5263C192.47 116.332 174.054 139.634 154.763 163.597Z" fill="white" fill-opacity="0.1"/>
<path d="M62.3013 165.356C62.3013 208.434 62.3498 251.512 62.3013 294.59C62.2527 314.091 51.4167 325.935 33.6324 325.99C12.884 326.045 0.0561081 314.091 0.0561081 294.094C-0.041074 206.947 0.00751706 119.744 0.0561081 32.5959C0.0561081 13.2603 12.884 0.480247 31.8346 0.535334C49.6189 0.535334 62.2527 13.8663 62.3013 33.1468C62.3498 77.1614 62.3013 121.286 62.3013 165.356Z" fill="white" fill-opacity="0.1"/>
</svg>
