<svg width="55" height="57" viewBox="0 0 55 57" fill="none" xmlns="http://www.w3.org/2000/svg">
<path d="M26.204 16.7169C24.8062 19.9947 23.5262 22.9788 22.2462 25.9725C18.5495 34.6501 14.8612 43.3278 11.1476 51.996C9.54764 55.7475 6.78561 57.0833 3.43412 55.7949C0.587886 54.696 -0.776294 51.7023 0.453146 48.6329C2.10363 44.4836 3.96464 40.4384 5.75828 36.3648C10.4318 25.7735 15.0801 15.1822 19.8126 4.61927C21.7157 0.365686 25.5725 -1.18798 29.2524 0.962499C30.5155 1.70143 31.6607 3.16036 32.3765 4.59085C37.9089 15.6464 43.3235 26.7777 48.7802 37.8711C50.3465 41.0447 51.9296 44.2089 53.5127 47.373C54.279 48.8982 54.9527 50.4424 54.4811 52.2802C53.7232 55.2265 50.8097 56.8275 47.6013 56.0507C45.7487 55.596 44.3593 54.4781 43.4414 52.555C38.2374 41.6984 33.008 30.8607 27.7787 20.0136C27.3071 19.0095 26.8272 18.0147 26.204 16.7169Z" fill="url(#paint0_linear_962_423)"/>
<path d="M27.1906 54.4844C23.4151 54.4756 20.438 51.5209 20.4297 47.7724C20.4214 43.9093 23.49 40.8047 27.3236 40.8047C31.1905 40.8047 34.1011 43.7241 34.1094 47.6137C34.1177 51.5297 31.1323 54.4932 27.1906 54.4844Z" fill="url(#paint1_linear_962_423)"/>
<defs>
<linearGradient id="paint0_linear_962_423" x1="160.351" y1="28.1308" x2="-163.242" y2="28.1308" gradientUnits="userSpaceOnUse">
<stop stop-color="#7E6FFF"/>
<stop offset="1" stop-color="#62F2DB"/>
</linearGradient>
<linearGradient id="paint1_linear_962_423" x1="159.176" y1="47.6422" x2="-160.386" y2="47.6422" gradientUnits="userSpaceOnUse">
<stop stop-color="#7E6FFF"/>
<stop offset="1" stop-color="#62F2DB"/>
</linearGradient>
</defs>
</svg>
