<svg width="32" height="40" viewBox="0 0 32 40" fill="none" xmlns="http://www.w3.org/2000/svg">
<path d="M18.6342 19.6976C22.3259 23.7899 26.3919 28.2802 30.4347 32.8103C30.9027 33.3343 31.3181 33.991 31.5638 34.6808C32.0552 36.0537 31.4468 37.8114 30.341 38.5807C28.6736 39.7348 26.3861 39.5624 24.9878 38.0236C20.1553 32.6843 15.3345 27.3185 10.5605 21.9129C8.91647 20.0558 8.98669 17.5221 10.6248 15.645C14.7026 10.9823 18.7921 6.33942 22.8934 1.70983C24.2273 0.204217 25.8186 -0.425882 27.6732 0.30371C30.4113 1.38483 31.1777 4.70117 29.2002 7.08892C28.0067 8.53484 26.6552 9.81493 25.4559 11.2608C23.1742 14.0068 20.9568 16.8124 18.6342 19.6976Z" fill="url(#paint0_linear_971_837)"/>
<path d="M7.50126 19.9094C7.50126 25.0961 7.50711 30.2828 7.50126 35.4696C7.49541 37.8175 6.19073 39.2436 4.04944 39.2502C1.55128 39.2568 0.00675559 37.8175 0.00675559 35.4099C-0.00494543 24.917 0.000905077 14.4175 0.00675559 3.92466C0.00675559 1.5966 1.55128 0.0578418 3.83298 0.0644745C5.97426 0.0644745 7.49541 1.66957 7.50126 3.99099C7.50711 9.29049 7.50126 14.6032 7.50126 19.9094Z" fill="url(#paint1_linear_971_837)"/>
<defs>
<linearGradient id="paint0_linear_971_837" x1="29.6358" y1="19.658" x2="-195.186" y2="19.658" gradientUnits="userSpaceOnUse">
<stop stop-color="#7E6FFF"/>
<stop offset="1" stop-color="#62F2DB"/>
</linearGradient>
<linearGradient id="paint1_linear_971_837" x1="29.6364" y1="19.6543" x2="-195.185" y2="19.6543" gradientUnits="userSpaceOnUse">
<stop stop-color="#7E6FFF"/>
<stop offset="1" stop-color="#62F2DB"/>
</linearGradient>
</defs>
</svg>
