<svg width="65" height="58" viewBox="0 0 65 58" fill="none" xmlns="http://www.w3.org/2000/svg">
<path d="M0 28.902C0.129301 15.3409 9.17112 2.8413 20.919 0.176942C22.9047 -0.270586 24.7519 0.0624571 26.0449 2.0295C27.1624 3.73635 27.3194 6.25501 26.0356 7.67045C25.0012 8.81529 23.4958 9.57505 22.092 10.1371C18.49 11.5837 15.4884 13.9462 13.2349 17.3808C6.87141 27.0495 9.23577 44.3053 23.3665 48.2082C24.1977 48.4371 25.0382 48.8118 25.7586 49.3218C27.3564 50.4354 28.0398 52.4233 27.5873 54.2654C27.107 56.2221 25.62 57.5543 23.7175 57.6271C19.2474 57.804 15.3406 55.8682 11.7848 53.1206C5.86471 48.5308 1.96721 42.2967 0.60032 34.2411C0.304775 32.4823 0.193951 30.6817 0 28.902Z" fill="url(#paint0_linear_962_426)"/>
<path d="M54.6474 29.5807C54.5547 20.5336 50.0412 13.3811 42.4877 10.2644C41.334 9.7907 40.1635 9.34544 39.0772 8.71071C37.1236 7.55495 36.3742 5.43289 36.9805 3.16873C37.5615 0.999312 39.2793 -0.184849 41.5614 0.0235676C46.176 0.459347 50.0833 2.73298 53.6537 5.88764C59.8009 11.3159 63.6576 18.3168 64.3144 27.1176C64.9628 35.7859 62.4703 43.3646 56.9041 49.5508C53.6284 53.1981 49.8727 55.9359 45.2918 56.8927C43.9276 57.1769 42.4203 57.0538 41.0561 56.7127C39.3888 56.2864 38.572 54.7328 38.4036 52.8665C38.2436 51.076 38.9594 49.674 40.3488 48.8592C41.5698 48.1487 42.8835 47.6466 44.1634 47.0688C50.7401 44.132 54.7231 37.4816 54.6474 29.5807Z" fill="url(#paint1_linear_962_426)"/>
<path d="M24.9668 23.7129C27.9517 23.7224 30.1142 25.8319 30.0957 28.6983C30.068 31.9052 28.0072 34.0905 24.9668 34.1094C22.0558 34.1283 19.6992 31.8295 19.6992 28.9537C19.6992 25.8319 21.8432 23.7035 24.9668 23.7129Z" fill="url(#paint2_linear_962_426)"/>
<path d="M40.87 23.7129C43.9363 23.7224 45.9556 25.7184 45.9649 28.736C45.9743 31.9144 43.8989 34.0618 40.7671 34.109C37.785 34.1469 35.5133 31.7914 35.5694 28.6981C35.6161 25.567 37.6073 23.7035 40.87 23.7129Z" fill="url(#paint3_linear_962_426)"/>
<defs>
<linearGradient id="paint0_linear_962_426" x1="300.795" y1="28.8189" x2="-54.115" y2="28.8189" gradientUnits="userSpaceOnUse">
<stop stop-color="#7E6FFF"/>
<stop offset="1" stop-color="#62F2DB"/>
</linearGradient>
<linearGradient id="paint1_linear_962_426" x1="274.182" y1="28.5215" x2="-49.411" y2="28.5215" gradientUnits="userSpaceOnUse">
<stop stop-color="#7E6FFF"/>
<stop offset="1" stop-color="#62F2DB"/>
</linearGradient>
<linearGradient id="paint2_linear_962_426" x1="296.241" y1="28.9159" x2="-58.8823" y2="28.9159" gradientUnits="userSpaceOnUse">
<stop stop-color="#7E6FFF"/>
<stop offset="1" stop-color="#62F2DB"/>
</linearGradient>
<linearGradient id="paint3_linear_962_426" x1="297.613" y1="28.9104" x2="-61.6298" y2="28.9104" gradientUnits="userSpaceOnUse">
<stop stop-color="#7E6FFF"/>
<stop offset="1" stop-color="#62F2DB"/>
</linearGradient>
</defs>
</svg>
