<svg width="43" height="53" viewBox="0 0 43 53" fill="none" xmlns="http://www.w3.org/2000/svg">
<path d="M25.1843 26.4167C30.1734 31.905 35.6686 37.927 41.1322 44.0024C41.7647 44.7051 42.3261 45.5857 42.6582 46.5108C43.3224 48.3521 42.5001 50.7093 41.0057 51.7411C38.7523 53.2889 35.6607 53.0576 33.771 50.9939C27.24 43.8334 20.7248 36.6372 14.2729 29.3877C12.0511 26.897 12.146 23.4991 14.3599 20.9818C19.8709 14.7285 25.3978 8.50188 30.9404 2.29307C32.7431 0.273877 34.8938 -0.571156 37.4002 0.407309C41.1006 1.85722 42.1364 6.30479 39.4639 9.50704C37.8509 11.4462 36.0244 13.1629 34.4036 15.1021C31.3199 18.7846 28.3233 22.5473 25.1843 26.4167Z" fill="url(#paint0_linear_971_263)"/>
<path d="M10.1377 26.7012C10.1377 33.6572 10.1456 40.6132 10.1377 47.5692C10.1298 50.718 8.36655 52.6305 5.47268 52.6394C2.09649 52.6483 0.00912994 50.718 0.00912994 47.4891C-0.00668358 33.417 0.00122318 19.336 0.00912994 5.26389C0.00912994 2.1417 2.0965 0.0780476 5.18013 0.0869427C8.07401 0.0869427 10.1298 2.23955 10.1377 5.35285C10.1456 12.4601 10.1377 19.5851 10.1377 26.7012Z" fill="url(#paint1_linear_971_263)"/>
<defs>
<linearGradient id="paint0_linear_971_263" x1="40.0525" y1="26.3636" x2="-263.786" y2="26.3636" gradientUnits="userSpaceOnUse">
<stop stop-color="#7E6FFF"/>
<stop offset="1" stop-color="#62F2DB"/>
</linearGradient>
<linearGradient id="paint1_linear_971_263" x1="40.0525" y1="26.3592" x2="-263.786" y2="26.3592" gradientUnits="userSpaceOnUse">
<stop stop-color="#7E6FFF"/>
<stop offset="1" stop-color="#62F2DB"/>
</linearGradient>
</defs>
</svg>
