<svg width="61" height="55" viewBox="0 0 61 55" fill="none" xmlns="http://www.w3.org/2000/svg">
<path d="M0 27.1377C0.121408 14.4044 8.61126 2.66791 19.642 0.1662C21.5065 -0.254008 23.2409 0.0587039 24.4549 1.90567C25.5042 3.50832 25.6517 5.87323 24.4463 7.20226C23.475 8.27721 22.0615 8.99058 20.7433 9.51828C17.3613 10.8766 14.5429 13.0949 12.4269 16.3198C6.45193 25.3982 8.67196 41.6007 21.9401 45.2653C22.7205 45.4803 23.5097 45.8321 24.1861 46.3109C25.6864 47.3566 26.3281 49.2231 25.9032 50.9528C25.4522 52.79 24.056 54.0408 22.2696 54.1092C18.0724 54.2754 14.4041 52.4577 11.0654 49.8778C5.50669 45.5682 1.84712 39.7146 0.563672 32.1509C0.28617 30.4994 0.182111 28.8088 0 27.1377Z" fill="url(#paint0_linear_971_269)"/>
<path d="M51.3122 27.7749C51.2252 19.2801 46.9872 12.5643 39.8948 9.63777C38.8116 9.19301 37.7126 8.77493 36.6926 8.17895C34.8582 7.09375 34.1545 5.10123 34.7238 2.97529C35.2694 0.938307 36.8823 -0.173564 39.0251 0.0221288C43.358 0.431305 47.0267 2.56614 50.3792 5.52822C56.1511 10.6251 59.7724 17.1986 60.3891 25.4622C60.998 33.6012 58.6576 40.7174 53.4312 46.5259C50.3555 49.9505 46.8291 52.5212 42.5278 53.4196C41.2469 53.6865 39.8316 53.5708 38.5507 53.2506C36.9851 52.8503 36.2182 51.3915 36.06 49.6392C35.9098 47.958 36.5819 46.6415 37.8865 45.8765C39.033 45.2094 40.2664 44.738 41.4683 44.1954C47.6435 41.4379 51.3834 35.1935 51.3122 27.7749Z" fill="url(#paint1_linear_971_269)"/>
<path d="M23.4421 22.2657C26.2448 22.2745 28.2753 24.2553 28.2579 26.9467C28.2319 29.9578 26.2969 32.0097 23.4421 32.0274C20.7088 32.0452 18.4961 29.8868 18.4961 27.1865C18.4961 24.2553 20.5092 22.2568 23.4421 22.2657Z" fill="url(#paint2_linear_971_269)"/>
<path d="M38.3745 22.2657C41.2536 22.2745 43.1496 24.1487 43.1584 26.9821C43.1672 29.9665 41.2185 31.9827 38.2779 32.0271C35.4778 32.0627 33.3448 29.851 33.3974 26.9465C33.4413 24.0066 35.311 22.2568 38.3745 22.2657Z" fill="url(#paint3_linear_971_269)"/>
<defs>
<linearGradient id="paint0_linear_971_269" x1="282.432" y1="27.0596" x2="-50.8115" y2="27.0596" gradientUnits="userSpaceOnUse">
<stop stop-color="#7E6FFF"/>
<stop offset="1" stop-color="#62F2DB"/>
</linearGradient>
<linearGradient id="paint1_linear_971_269" x1="257.445" y1="26.7804" x2="-46.3938" y2="26.7804" gradientUnits="userSpaceOnUse">
<stop stop-color="#7E6FFF"/>
<stop offset="1" stop-color="#62F2DB"/>
</linearGradient>
<linearGradient id="paint2_linear_971_269" x1="278.156" y1="27.151" x2="-55.2883" y2="27.151" gradientUnits="userSpaceOnUse">
<stop stop-color="#7E6FFF"/>
<stop offset="1" stop-color="#62F2DB"/>
</linearGradient>
<linearGradient id="paint3_linear_971_269" x1="279.444" y1="27.1459" x2="-57.8681" y2="27.1459" gradientUnits="userSpaceOnUse">
<stop stop-color="#7E6FFF"/>
<stop offset="1" stop-color="#62F2DB"/>
</linearGradient>
</defs>
</svg>
