<svg width="372" height="336" viewBox="0 0 372 336" fill="none" xmlns="http://www.w3.org/2000/svg">
<path d="M0 168.064C0.746111 89.2076 52.9206 16.524 120.71 1.03103C132.168 -1.57129 142.827 0.365315 150.288 11.8035C156.737 21.7286 157.643 36.3743 150.235 44.605C144.266 51.2621 135.579 55.68 127.478 58.948C106.694 67.3602 89.3734 81.098 76.3697 101.069C39.6504 157.292 53.2936 257.633 134.833 280.327C139.629 281.659 144.479 283.837 148.636 286.803C157.856 293.278 161.8 304.838 159.188 315.55C156.417 326.927 147.837 334.674 136.858 335.097C111.064 336.126 88.5207 324.869 68.0027 308.892C33.8414 282.203 11.3515 245.952 3.46406 199.111C1.75866 188.883 1.11917 178.413 0 168.064Z" fill="white" fill-opacity="0.1"/>
<path d="M315.34 172.009C314.806 119.401 288.761 77.8098 245.175 59.6862C238.518 56.9318 231.764 54.3427 225.495 50.6518C214.222 43.9312 209.898 31.5917 213.396 18.4258C216.749 5.81089 226.662 -1.07487 239.83 0.137043C266.458 2.67105 289.004 15.892 309.607 34.236C345.078 65.8009 367.333 106.51 371.123 157.686C374.864 208.091 360.481 252.161 328.363 288.132C309.461 309.341 287.789 325.261 261.356 330.825C253.484 332.478 244.786 331.761 236.914 329.778C227.293 327.299 222.58 318.265 221.608 307.413C220.685 297.001 224.815 288.848 232.833 284.111C239.878 279.979 247.459 277.06 254.844 273.7C292.794 256.623 315.778 217.951 315.34 172.009Z" fill="white" fill-opacity="0.1"/>
<path d="M144.062 137.892C161.286 137.947 173.764 150.214 173.657 166.881C173.497 185.529 161.606 198.236 144.062 198.346C127.264 198.456 113.666 185.089 113.666 168.366C113.666 150.214 126.038 137.837 144.062 137.892Z" fill="white" fill-opacity="0.1"/>
<path d="M235.829 137.892C253.522 137.947 265.174 149.553 265.228 167.1C265.282 185.583 253.306 198.069 235.235 198.344C218.027 198.564 204.919 184.867 205.242 166.88C205.512 148.673 217.002 137.837 235.829 137.892Z" fill="white" fill-opacity="0.1"/>
</svg>
