<svg width="46" height="57" viewBox="0 0 46 57" fill="none" xmlns="http://www.w3.org/2000/svg">
<path d="M26.8194 28.1342C32.1329 33.9793 37.9853 40.3928 43.8041 46.8632C44.4778 47.6116 45.0757 48.5495 45.4293 49.5347C46.1367 51.4957 45.2609 54.0062 43.6694 55.1051C41.2695 56.7535 37.9769 56.5072 35.9644 54.3093C29.0088 46.6832 22.07 39.0192 15.1986 31.2983C12.8324 28.6458 12.9334 25.0269 15.2913 22.3459C21.1606 15.6861 27.0467 9.05463 32.9497 2.44216C34.8697 0.291684 37.1601 -0.60829 39.8295 0.43379C43.7705 1.97796 44.8736 6.7147 42.0274 10.1251C40.3095 12.1904 38.3643 14.0187 36.638 16.0839C33.3539 20.0059 30.1624 24.0132 26.8194 28.1342Z" fill="url(#paint0_linear_962_420)"/>
<path d="M10.7968 28.4374C10.7968 35.8456 10.8052 43.2539 10.7968 50.6621C10.7884 54.0157 8.91051 56.0525 5.82849 56.062C2.2328 56.0715 0.00972353 54.0157 0.00972353 50.5768C-0.00711811 35.5898 0.00130271 20.5933 0.00972353 5.60633C0.00972353 2.28115 2.2328 0.0833305 5.51692 0.0928039C8.59894 0.0928039 10.7884 2.38536 10.7968 5.70108C10.8052 13.2704 10.7968 20.8586 10.7968 28.4374Z" fill="url(#paint1_linear_962_420)"/>
<defs>
<linearGradient id="paint0_linear_962_420" x1="42.6543" y1="28.0776" x2="-280.939" y2="28.0776" gradientUnits="userSpaceOnUse">
<stop stop-color="#7E6FFF"/>
<stop offset="1" stop-color="#62F2DB"/>
</linearGradient>
<linearGradient id="paint1_linear_962_420" x1="42.6565" y1="28.0731" x2="-280.936" y2="28.0731" gradientUnits="userSpaceOnUse">
<stop stop-color="#7E6FFF"/>
<stop offset="1" stop-color="#62F2DB"/>
</linearGradient>
</defs>
</svg>
