<svg width="316" height="328" viewBox="0 0 316 328" fill="none" xmlns="http://www.w3.org/2000/svg">
<path d="M151.206 97.2067C143.14 116.267 135.754 133.619 128.369 151.027C107.037 201.487 85.7542 251.946 64.3255 302.351C55.0932 324.166 39.1553 331.933 19.8161 324.441C3.39231 318.051 -4.47949 300.643 2.61481 282.795C12.1387 258.667 22.8774 235.145 33.2273 211.457C60.1953 149.87 87.0176 88.2827 114.326 26.8605C125.307 2.12642 147.562 -6.90795 168.796 5.59682C176.085 9.89362 182.693 18.3771 186.824 26.6953C218.748 90.9819 249.992 155.709 281.479 220.216C290.517 238.67 299.652 257.07 308.787 275.469C313.209 284.338 317.096 293.317 314.375 304.004C310.002 321.136 293.189 330.446 274.676 325.928C263.986 323.284 255.969 316.784 250.672 305.601C220.643 242.471 190.468 179.452 160.293 116.377C157.572 110.538 154.802 104.754 151.206 97.2067Z" fill="white" fill-opacity="0.1"/>
<path d="M156.893 316.82C135.108 316.768 117.929 299.587 117.881 277.79C117.833 255.326 135.54 237.273 157.661 237.273C179.975 237.273 196.77 254.249 196.818 276.867C196.866 299.638 179.639 316.871 156.893 316.82Z" fill="white" fill-opacity="0.1"/>
</svg>
