<svg width="52" height="53" viewBox="0 0 52 53" fill="none" xmlns="http://www.w3.org/2000/svg">
<path d="M24.6044 15.6964C23.2918 18.7741 22.09 21.5761 20.8882 24.3869C17.4171 32.5349 13.954 40.6828 10.4671 48.8219C8.96479 52.3443 6.37137 53.5985 3.22448 52.3888C0.551998 51.357 -0.728904 48.5461 0.425483 45.6641C1.97521 41.768 3.72262 37.9698 5.40675 34.1449C9.795 24.2001 14.1595 14.2554 18.6031 4.33728C20.3901 0.343362 24.0113 -1.11545 27.4666 0.903741C28.6526 1.59756 29.7279 2.96743 30.4 4.31059C35.5947 14.6912 40.6788 25.143 45.8024 35.5592C47.273 38.5391 48.7595 41.5101 50.246 44.481C50.9655 45.9131 51.598 47.363 51.1552 49.0887C50.4436 51.8551 47.7079 53.3584 44.6954 52.629C42.9559 52.202 41.6513 51.1524 40.7895 49.3467C35.9031 39.1528 30.993 28.9768 26.0829 18.7919C25.6401 17.849 25.1895 16.915 24.6044 15.6964Z" fill="url(#paint0_linear_971_266)"/>
<path d="M25.5298 51.1581C21.9848 51.1498 19.1895 48.3755 19.1817 44.8559C19.1738 41.2286 22.0551 38.3135 25.6547 38.3135C29.2856 38.3135 32.0185 41.0547 32.0263 44.7068C32.0341 48.3838 29.2309 51.1664 25.5298 51.1581Z" fill="url(#paint1_linear_971_266)"/>
<defs>
<linearGradient id="paint0_linear_971_266" x1="150.563" y1="26.4135" x2="-153.276" y2="26.4135" gradientUnits="userSpaceOnUse">
<stop stop-color="#7E6FFF"/>
<stop offset="1" stop-color="#62F2DB"/>
</linearGradient>
<linearGradient id="paint1_linear_971_266" x1="149.458" y1="44.7336" x2="-150.596" y2="44.7336" gradientUnits="userSpaceOnUse">
<stop stop-color="#7E6FFF"/>
<stop offset="1" stop-color="#62F2DB"/>
</linearGradient>
</defs>
</svg>
