<svg width="56" height="56" viewBox="0 0 56 56" fill="none" xmlns="http://www.w3.org/2000/svg">
<path d="M50.332 46.2083C47.0125 40.4693 41.8968 36.3542 35.9268 34.4034C38.8798 32.6454 41.1742 29.9667 42.4575 26.7785C43.7407 23.5904 43.942 20.0692 43.0304 16.7556C42.1187 13.442 40.1446 10.5193 37.4111 8.43625C34.6776 6.35323 31.3359 5.2251 27.8992 5.2251C24.4624 5.2251 21.1207 6.35323 18.3872 8.43625C15.6537 10.5193 13.6796 13.442 12.7679 16.7556C11.8563 20.0692 12.0576 23.5904 13.3409 26.7785C14.6241 29.9667 16.9185 32.6454 19.8715 34.4034C13.9015 36.352 8.78586 40.4671 5.46626 46.2083C5.34453 46.4068 5.26378 46.6277 5.22879 46.8579C5.19379 47.0881 5.20526 47.323 5.26252 47.5487C5.31977 47.7744 5.42165 47.9864 5.56215 48.172C5.70264 48.3577 5.87891 48.5134 6.08054 48.6299C6.28217 48.7463 6.50509 48.8212 6.73614 48.8502C6.96719 48.8791 7.20169 48.8614 7.42581 48.7983C7.64993 48.7351 7.85912 48.6277 8.04105 48.4823C8.22298 48.337 8.37395 48.1567 8.48507 47.952C12.5915 40.8551 19.8497 36.6179 27.8992 36.6179C35.9486 36.6179 43.2068 40.8551 47.3132 47.952C47.4244 48.1567 47.5753 48.337 47.7573 48.4823C47.9392 48.6277 48.1484 48.7351 48.3725 48.7983C48.5966 48.8614 48.8311 48.8791 49.0622 48.8502C49.2932 48.8212 49.5161 48.7463 49.7178 48.6299C49.9194 48.5134 50.0957 48.3577 50.2362 48.172C50.3767 47.9864 50.4785 47.7744 50.5358 47.5487C50.593 47.323 50.6045 47.0881 50.5695 46.8579C50.5345 46.6277 50.4538 46.4068 50.332 46.2083ZM15.6932 20.9245C15.6932 18.5103 16.409 16.1504 17.7502 14.1432C19.0914 12.1359 20.9978 10.5714 23.2281 9.64758C25.4585 8.72374 27.9127 8.48202 30.2804 8.95299C32.6482 9.42396 34.8231 10.5865 36.5301 12.2935C38.2371 14.0006 39.3997 16.1755 39.8706 18.5432C40.3416 20.9109 40.0999 23.3651 39.176 25.5955C38.2522 27.8259 36.6877 29.7322 34.6804 31.0734C32.6732 32.4146 30.3133 33.1305 27.8992 33.1305C24.663 33.127 21.5604 31.8399 19.272 29.5516C16.9837 27.2633 15.6966 24.1606 15.6932 20.9245Z" fill="white"/>
</svg>
