<svg width="70" height="70" viewBox="0 0 70 70" fill="none" xmlns="http://www.w3.org/2000/svg">
<path d="M37.9856 45.3766C41.4148 43.2408 44.0551 40.0462 45.507 36.2762C46.9589 32.5062 47.1435 28.3659 46.0327 24.4817C44.922 20.5975 42.5765 17.1807 39.351 14.7482C36.1254 12.3158 32.1955 11 28.1555 11C24.1156 11 20.1856 12.3158 16.9601 14.7482C13.7346 17.1807 11.389 20.5975 10.2783 24.4817C9.16763 28.3659 9.35219 32.5062 10.8041 36.2762C12.256 40.0462 14.8963 43.2408 18.3255 45.3766C12.679 47.225 7.59851 50.6785 3.51335 55.5402C3.13987 55.9844 2.95814 56.5588 3.00814 57.1369C3.05814 57.7151 3.33577 58.2498 3.77995 58.6232C4.22414 58.9967 4.7985 59.1784 5.37667 59.1285C5.95485 59.0785 6.48948 58.8008 6.86296 58.3566C12.3509 51.8051 19.9141 48.1984 28.1419 48.1984C36.3696 48.1984 43.9329 51.8051 49.4372 58.3566C49.8107 58.8008 50.3453 59.0785 50.9235 59.1285C51.5016 59.1784 52.076 58.9967 52.5202 58.6232C52.9644 58.2498 53.242 57.7151 53.292 57.1369C53.342 56.5588 53.1603 55.9844 52.7868 55.5402C48.6989 50.6785 43.6184 47.225 37.9856 45.3766ZM13.9231 29.6047C13.9231 26.7925 14.757 24.0434 16.3194 21.7052C17.8818 19.3669 20.1025 17.5445 22.7006 16.4683C25.2987 15.3921 28.1576 15.1105 30.9158 15.6591C33.674 16.2078 36.2075 17.562 38.196 19.5505C40.1846 21.539 41.5388 24.0726 42.0874 26.8307C42.636 29.5889 42.3545 32.4478 41.2783 35.046C40.2021 37.6441 38.3796 39.8648 36.0414 41.4271C33.7031 42.9895 30.9541 43.8234 28.1419 43.8234C24.3722 43.8191 20.7581 42.3197 18.0925 39.6541C15.4269 36.9885 13.9275 33.3744 13.9231 29.6047ZM55.3106 18.0109C56.8696 21.6774 57.673 25.6206 57.673 29.6047C57.673 33.5888 56.8696 37.532 55.3106 41.1984C55.1423 41.5928 54.8618 41.929 54.504 42.1653C54.1462 42.4015 53.7269 42.5274 53.2981 42.5273C52.936 42.5276 52.5795 42.438 52.2606 42.2665C51.9416 42.0951 51.6703 41.8471 51.4708 41.5449C51.2713 41.2427 51.15 40.8957 51.1176 40.5351C51.0853 40.1744 51.143 39.8114 51.2856 39.4785C52.6137 36.3561 53.2982 32.9978 53.2982 29.6047C53.2982 26.2116 52.6137 22.8533 51.2856 19.7309C51.0575 19.1971 51.0508 18.5946 51.267 18.0559C51.4831 17.5172 51.9044 17.0865 52.4382 16.8584C52.9719 16.6303 53.5744 16.6236 54.1131 16.8398C54.6518 17.0559 55.0825 17.4772 55.3106 18.0109ZM66.4231 29.6047C66.4334 34.7893 65.3828 39.9212 63.336 44.6848C63.0966 45.201 62.6655 45.6037 62.1341 45.8072C61.6027 46.0108 61.0129 45.9993 60.4898 45.7751C59.9668 45.551 59.5517 45.1318 59.3326 44.6066C59.1135 44.0814 59.1077 43.4915 59.3165 42.9621C61.1189 38.7395 62.0481 34.1959 62.0481 29.6047C62.0481 25.0135 61.1189 20.4698 59.3165 16.2473C59.1934 15.9818 59.1248 15.6942 59.1148 15.4018C59.1048 15.1093 59.1535 14.8177 59.2582 14.5444C59.3629 14.2711 59.5214 14.0216 59.7243 13.8107C59.9272 13.5997 60.1703 13.4317 60.4393 13.3164C60.7083 13.2011 60.9977 13.1409 61.2903 13.1395C61.583 13.1381 61.873 13.1954 62.1431 13.3081C62.4132 13.4207 62.6579 13.5865 62.8629 13.7954C63.0678 14.0044 63.2287 14.2523 63.336 14.5246C65.3828 19.2881 66.4334 24.4201 66.4231 29.6047Z" fill="#6248E6"/>
</svg>
