<svg width="56" height="56" viewBox="0 0 56 56" fill="none" xmlns="http://www.w3.org/2000/svg">
<g clip-path="url(#clip0_971_148)">
<path d="M25.5565 34.421C27.8936 32.8651 29.6679 30.5985 30.617 27.9563C31.5662 25.314 31.6399 22.4365 30.8272 19.7492C30.0144 17.0618 28.3585 14.7073 26.1041 13.0339C23.8498 11.3605 21.1168 10.457 18.3092 10.457C15.5017 10.457 12.7687 11.3605 10.5143 13.0339C8.25999 14.7073 6.60402 17.0618 5.7913 19.7492C4.97858 22.4365 5.05225 25.314 6.00143 27.9563C6.95061 30.5985 8.7249 32.8651 11.0619 34.421C6.83448 35.9791 3.22415 38.8623 0.769639 42.6404C0.640638 42.8321 0.551034 43.0476 0.506035 43.2743C0.461036 43.5009 0.46154 43.7343 0.507517 43.9607C0.553495 44.1872 0.644028 44.4023 0.773855 44.5935C0.903683 44.7846 1.07021 44.9481 1.26377 45.0743C1.45732 45.2006 1.67404 45.2871 1.90133 45.3288C2.12861 45.3706 2.36193 45.3667 2.58771 45.3175C2.8135 45.2683 3.02725 45.1747 3.21655 45.0422C3.40584 44.9096 3.5669 44.7408 3.69036 44.5454C5.27363 42.1103 7.44013 40.1092 9.9931 38.724C12.5461 37.3387 15.4046 36.6132 18.3092 36.6132C21.2138 36.6132 24.0724 37.3387 26.6254 38.724C29.1783 40.1092 31.3448 42.1103 32.9281 44.5454C33.1839 44.9255 33.5789 45.1897 34.0279 45.2809C34.4769 45.372 34.9437 45.2828 35.3274 45.0325C35.7112 44.7822 35.981 44.391 36.0786 43.9434C36.1761 43.4957 36.0936 43.0277 35.8488 42.6404C33.3943 38.8623 29.784 35.9791 25.5565 34.421ZM8.7188 23.5402C8.7188 21.6434 9.28127 19.7892 10.3351 18.212C11.3889 16.6349 12.8867 15.4057 14.6391 14.6798C16.3916 13.9539 18.3199 13.764 20.1802 14.134C22.0406 14.5041 23.7494 15.4175 25.0907 16.7587C26.4319 18.1 27.3453 19.8088 27.7154 21.6692C28.0854 23.5296 27.8955 25.4579 27.1696 27.2103C26.4438 28.9627 25.2145 30.4605 23.6374 31.5144C22.0603 32.5682 20.206 33.1306 18.3092 33.1306C15.7666 33.1277 13.3289 32.1164 11.531 30.3185C9.73303 28.5205 8.72168 26.0829 8.7188 23.5402ZM54.5218 45.0533C54.1345 45.3059 53.6627 45.3942 53.2102 45.299C52.7578 45.2038 52.3616 44.9327 52.109 44.5454C50.5276 42.1088 48.3614 40.1069 45.8079 38.7222C43.2544 37.3376 40.3949 36.6142 37.4901 36.6181C37.0276 36.6181 36.5841 36.4344 36.2571 36.1073C35.9301 35.7803 35.7464 35.3368 35.7464 34.8743C35.7464 34.4119 35.9301 33.9684 36.2571 33.6414C36.5841 33.3143 37.0276 33.1306 37.4901 33.1306C38.9024 33.1293 40.2971 32.816 41.5743 32.2133C42.8515 31.6105 43.9799 30.733 44.8787 29.6436C45.7775 28.5542 46.4246 27.2797 46.7738 25.9112C47.123 24.5427 47.1656 23.1139 46.8985 21.7271C46.6315 20.3402 46.0615 19.0294 45.2292 17.8884C44.3969 16.7473 43.3228 15.8042 42.0837 15.1264C40.8447 14.4486 39.4712 14.0528 38.0614 13.9673C36.6517 13.8819 35.2404 14.1088 33.9286 14.632C33.7147 14.7245 33.4844 14.7731 33.2514 14.7751C33.0184 14.7771 32.7873 14.7323 32.5719 14.6435C32.3565 14.5546 32.161 14.4235 31.9971 14.2579C31.8332 14.0922 31.7042 13.8954 31.6177 13.679C31.5311 13.4627 31.4888 13.2312 31.4933 12.9982C31.4977 12.7652 31.5488 12.5355 31.6435 12.3226C31.7383 12.1097 31.8747 11.9179 32.0448 11.7586C32.2149 11.5993 32.4152 11.4758 32.6339 11.3952C35.6362 10.1978 38.9757 10.1548 42.0079 11.2743C45.0402 12.3938 47.5505 14.5966 49.0544 17.4577C50.5584 20.3189 50.9495 23.6356 50.1523 26.7681C49.3551 29.9006 47.4261 32.6268 44.7374 34.421C48.9649 35.9791 52.5752 38.8623 55.0297 42.6404C55.2823 43.0277 55.3707 43.4995 55.2754 43.952C55.1802 44.4045 54.9091 44.8006 54.5218 45.0533Z" fill="white"/>
</g>
<defs>
<clipPath id="clip0_971_148">
<rect width="55.7989" height="55.7989" fill="white"/>
</clipPath>
</defs>
</svg>
