<svg width="287" height="326" viewBox="0 0 287 326" fill="none" xmlns="http://www.w3.org/2000/svg">
<path d="M178.032 62.5833C178.032 97.5086 178.032 130.836 178.032 164.164C178.032 206.25 178.032 248.337 178.032 290.424C178.032 312.073 166.418 325.073 146.885 325.294C126.136 325.514 113.891 312.844 113.891 290.479C113.746 218.425 113.843 146.426 113.794 74.3721C113.794 71.0118 113.794 67.7065 113.794 62.6385C110.344 62.6385 107.234 62.6385 104.125 62.6385C79.4889 62.6385 54.8532 62.7486 30.2661 62.5833C17.681 62.4732 7.62269 56.6891 2.47203 43.1927C-5.78845 21.4333 7.52552 0.279861 29.4401 0.1146C64.7658 -0.105748 100.043 0.0594592 135.369 0.0594592C175.699 0.0594592 216.078 -0.0506074 256.409 0.169741C278.275 0.279915 291.2 19.3951 284.786 41.5952C281.239 53.9347 269.869 62.4732 256.118 62.5833C233.571 62.7486 211.025 62.6384 188.479 62.6935C185.369 62.5833 182.162 62.5833 178.032 62.5833Z" fill="white" fill-opacity="0.1"/>
</svg>
