<svg width="35" height="40" viewBox="0 0 35 40" fill="none" xmlns="http://www.w3.org/2000/svg">
<path d="M21.4355 7.53522C21.4355 11.7403 21.4355 15.7531 21.4355 19.7658C21.4355 24.8332 21.4355 29.9005 21.4355 34.9679C21.4355 37.5745 20.0373 39.1398 17.6854 39.1663C15.1872 39.1929 13.7129 37.6674 13.7129 34.9745C13.6953 26.299 13.707 17.6301 13.7012 8.95462C13.7012 8.55003 13.7012 8.15207 13.7012 7.54186C13.2858 7.54186 12.9114 7.54186 12.5369 7.54186C9.57071 7.54186 6.60449 7.55512 3.64413 7.53522C2.12885 7.52196 0.917794 6.82554 0.29764 5.20054C-0.696947 2.58064 0.906095 0.0336962 3.54468 0.0137982C7.798 -0.0127324 12.0455 0.00715907 16.2988 0.00715907C21.1547 0.00715907 26.0165 -0.00609328 30.8724 0.0204373C33.5051 0.0337026 35.0614 2.33523 34.2891 5.00818C33.862 6.4939 32.493 7.52196 30.8373 7.53522C28.1227 7.55512 25.408 7.54185 22.6934 7.54848C22.319 7.53522 21.9328 7.53522 21.4355 7.53522Z" fill="url(#paint0_linear_971_835)"/>
<defs>
<linearGradient id="paint0_linear_971_835" x1="144.954" y1="19.5751" x2="-79.8677" y2="19.5751" gradientUnits="userSpaceOnUse">
<stop stop-color="#7E6FFF"/>
<stop offset="1" stop-color="#62F2DB"/>
</linearGradient>
</defs>
</svg>
