<svg width="44" height="57" viewBox="0 0 44 57" fill="none" xmlns="http://www.w3.org/2000/svg">
<path d="M11.1072 44.9268C16.7491 44.9268 22.1384 44.9268 27.5362 44.9268C31.1319 44.9268 34.736 44.9173 38.3317 44.9268C41.4642 44.9362 43.5273 47.1814 43.5442 50.5729C43.561 54.0213 41.7 56.0391 38.4664 56.0391C27.4604 56.0486 16.4544 56.0486 5.44836 56.0391C2.02951 56.0391 0.00852296 53.7465 0.00852296 49.8814C0.00852296 35.4059 0.0253564 20.9305 9.39143e-05 6.45505C-0.0083269 4.07721 0.547457 2.10673 2.50951 0.941492C4.60629 -0.309004 6.74517 -0.346872 8.81669 1.02678C10.6103 2.22043 11.0987 4.18143 11.0987 6.36979C11.1071 18.3537 11.1072 30.3376 11.1072 42.331C11.1072 43.1173 11.1072 43.9131 11.1072 44.9268Z" fill="url(#paint0_linear_962_419)"/>
<defs>
<linearGradient id="paint0_linear_962_419" x1="94.8224" y1="28.0162" x2="-228.771" y2="28.0162" gradientUnits="userSpaceOnUse">
<stop stop-color="#7E6FFF"/>
<stop offset="1" stop-color="#62F2DB"/>
</linearGradient>
</defs>
</svg>
