<svg width="31" height="40" viewBox="0 0 31 40" fill="none" xmlns="http://www.w3.org/2000/svg">
<path d="M7.71689 31.4546C11.6367 31.4546 15.3811 31.4546 19.1312 31.4546C21.6294 31.4546 24.1334 31.448 26.6316 31.4546C28.808 31.4612 30.2414 33.0332 30.2531 35.4076C30.2648 37.8219 28.9718 39.2347 26.7252 39.2347C19.0786 39.2413 11.432 39.2413 3.78535 39.2347C1.41004 39.2347 0.00592147 37.6296 0.00592147 34.9235C0.00592147 24.7888 0.0176168 14.6541 6.52486e-05 4.51938C-0.00578526 2.85458 0.380355 1.47498 1.74352 0.659167C3.2003 -0.216343 4.68633 -0.242856 6.12555 0.718879C7.37171 1.55459 7.71103 2.92754 7.71103 4.45968C7.71688 12.85 7.71689 21.2403 7.71689 29.6372C7.71689 30.1877 7.71689 30.7449 7.71689 31.4546Z" fill="url(#paint0_linear_971_836)"/>
<defs>
<linearGradient id="paint0_linear_971_836" x1="65.8795" y1="19.615" x2="-158.942" y2="19.615" gradientUnits="userSpaceOnUse">
<stop stop-color="#7E6FFF"/>
<stop offset="1" stop-color="#62F2DB"/>
</linearGradient>
</defs>
</svg>
