<svg width="36" height="40" viewBox="0 0 36 40" fill="none" xmlns="http://www.w3.org/2000/svg">
<path d="M28.6067 25.5717C28.6067 18.2567 28.6067 11.1158 28.6067 3.96766C28.6067 2.09536 29.5098 0.767327 31.1176 0.223053C32.7061 -0.321221 34.3651 0.266605 35.1594 1.79783C35.4861 2.42193 35.6846 3.2347 35.6911 3.9604C35.7295 14.4322 35.7167 24.9041 35.7359 35.3832C35.7423 37.0015 35.2683 38.2714 33.9039 38.881C32.4691 39.5196 31.0984 39.3455 29.9582 38.061C26.4096 34.0479 22.8674 30.0275 19.3252 26.0071C15.6549 21.8416 11.991 17.6834 8.32069 13.5179C8.07088 13.2348 7.80185 12.9808 7.40472 12.5599C7.3791 13.1187 7.34707 13.4888 7.34707 13.8662C7.34707 21.0143 7.2702 28.1552 7.3919 35.2961C7.43034 37.5821 5.44466 39.3818 3.76644 39.331C1.51814 39.2657 0.0320771 37.807 0.0320771 35.3614C0.0128608 25.0129 0.044886 14.6572 4.80192e-05 4.30874C-0.0063574 2.45095 0.627778 1.11567 2.0754 0.433512C3.61911 -0.28493 5.18844 -0.168821 6.46312 1.22452C8.83312 3.81527 11.1583 6.46407 13.5155 9.06933C18.4092 14.483 23.303 19.8895 28.2031 25.296C28.2672 25.3758 28.3696 25.4193 28.6067 25.5717Z" fill="url(#paint0_linear_971_834)"/>
<defs>
<linearGradient id="paint0_linear_971_834" x1="249.609" y1="19.6688" x2="3.46357" y2="19.6688" gradientUnits="userSpaceOnUse">
<stop stop-color="#7E6FFF"/>
<stop offset="0.1638" stop-color="#7889F8"/>
<stop offset="0.5543" stop-color="#6CC1E8"/>
<stop offset="0.8445" stop-color="#65E5DF"/>
<stop offset="1" stop-color="#62F2DB"/>
</linearGradient>
</defs>
</svg>
