<svg width="252" height="326" viewBox="0 0 252 326" fill="none" xmlns="http://www.w3.org/2000/svg">
<path d="M64.0922 261.244C96.6482 261.244 127.747 261.244 158.893 261.244C179.642 261.244 200.439 261.189 221.187 261.244C239.263 261.299 251.168 274.355 251.265 294.076C251.362 314.128 240.623 325.861 221.964 325.861C158.456 325.916 94.9475 325.916 31.439 325.861C11.711 325.861 0.0491804 312.53 0.0491804 290.055C0.0491804 205.882 0.146315 121.708 0.000541918 37.5354C-0.0480491 23.7085 3.15902 12.2504 14.4807 5.47467C26.5799 -1.79682 38.922 -2.01702 50.8754 5.97061C61.2253 12.9116 64.0435 24.3145 64.0435 37.0396C64.0921 106.725 64.0922 176.41 64.0922 246.15C64.0922 250.722 64.0922 255.35 64.0922 261.244Z" fill="white" fill-opacity="0.1"/>
</svg>
