<svg width="41" height="53" viewBox="0 0 41 53" fill="none" xmlns="http://www.w3.org/2000/svg">
<path d="M10.4291 42.1841C15.7266 42.1841 20.787 42.1841 25.8552 42.1841C29.2314 42.1841 32.6155 42.1753 35.9917 42.1841C38.933 42.193 40.8701 44.3012 40.8859 47.4856C40.9018 50.7235 39.1543 52.6181 36.1181 52.6181C25.784 52.627 15.4499 52.627 5.11576 52.6181C1.90562 52.6181 0.00800266 50.4655 0.00800266 46.8363C0.00800266 33.2445 0.0238085 19.6528 8.81811e-05 6.06099C-0.00781858 3.82831 0.514036 1.97812 2.35631 0.884018C4.32509 -0.29014 6.3334 -0.325697 8.27846 0.964098C9.9626 2.08488 10.4212 3.92616 10.4212 5.98094C10.4291 17.2333 10.4291 28.4856 10.4291 39.7469C10.4291 40.4852 10.4291 41.2324 10.4291 42.1841Z" fill="url(#paint0_linear_971_262)"/>
<defs>
<linearGradient id="paint0_linear_971_262" x1="89.0338" y1="26.3059" x2="-214.805" y2="26.3059" gradientUnits="userSpaceOnUse">
<stop stop-color="#7E6FFF"/>
<stop offset="1" stop-color="#62F2DB"/>
</linearGradient>
</defs>
</svg>
