<svg width="47" height="53" viewBox="0 0 47 53" fill="none" xmlns="http://www.w3.org/2000/svg">
<path d="M28.9694 10.1056C28.9694 15.7451 28.9694 21.1267 28.9694 26.5082C28.9694 33.3041 28.9694 40.1 28.9694 46.8959C28.9694 50.3917 27.0797 52.4909 23.9011 52.5265C20.525 52.5621 18.5324 50.5162 18.5324 46.9048C18.5087 35.2699 18.5245 23.644 18.5166 12.0092C18.5166 11.4666 18.5166 10.9328 18.5166 10.1145C17.9553 10.1145 17.4492 10.1145 16.9432 10.1145C12.9345 10.1145 8.92574 10.1323 4.92492 10.1056C2.87707 10.0878 1.24037 9.15382 0.40225 6.97451C-0.941899 3.46093 1.22456 0.0451903 4.7905 0.0185049C10.5387 -0.0170756 16.279 0.00960112 22.0272 0.00960112C28.5898 0.00960112 35.1604 -0.00817178 41.723 0.0274088C45.281 0.045199 47.3842 3.1318 46.3405 6.71654C45.7633 8.70905 43.9132 10.0878 41.6755 10.1056C38.0068 10.1323 34.3381 10.1145 30.6693 10.1234C30.1633 10.1056 29.6414 10.1056 28.9694 10.1056Z" fill="url(#paint0_linear_971_261)"/>
<defs>
<linearGradient id="paint0_linear_971_261" x1="195.9" y1="26.2525" x2="-107.938" y2="26.2525" gradientUnits="userSpaceOnUse">
<stop stop-color="#7E6FFF"/>
<stop offset="1" stop-color="#62F2DB"/>
</linearGradient>
</defs>
</svg>
