<svg width="50" height="56" viewBox="0 0 50 56" fill="none" xmlns="http://www.w3.org/2000/svg">
<path d="M30.8528 10.7626C30.8528 16.7688 30.8528 22.5002 30.8528 28.2317C30.8528 35.4694 30.8528 42.7071 30.8528 49.9448C30.8528 53.6679 28.8403 55.9036 25.4551 55.9415C21.8594 55.9794 19.7373 53.8005 19.7373 49.9543C19.7121 37.563 19.7289 25.1812 19.7205 12.7899C19.7205 12.2121 19.7205 11.6436 19.7205 10.7721C19.1226 10.7721 18.5837 10.7721 18.0448 10.7721C13.7754 10.7721 9.50605 10.791 5.24511 10.7626C3.06412 10.7437 1.32101 9.74896 0.428403 7.42796C-1.00314 3.68594 1.30417 0.0481284 5.10196 0.019708C11.2239 -0.0181858 17.3374 0.0102253 23.4594 0.0102253C30.4486 0.0102253 37.4463 -0.00870307 44.4356 0.0291908C48.225 0.0481377 50.4649 3.33542 49.3534 7.15322C48.7387 9.27527 46.7682 10.7437 44.3851 10.7626C40.4778 10.791 36.5706 10.7721 32.6633 10.7815C32.1244 10.7626 31.5686 10.7626 30.8528 10.7626Z" fill="url(#paint0_linear_962_418)"/>
<defs>
<linearGradient id="paint0_linear_962_418" x1="208.637" y1="27.9593" x2="-114.956" y2="27.9593" gradientUnits="userSpaceOnUse">
<stop stop-color="#7E6FFF"/>
<stop offset="1" stop-color="#62F2DB"/>
</linearGradient>
</defs>
</svg>
