<svg width="297" height="327" viewBox="0 0 297 327" fill="none" xmlns="http://www.w3.org/2000/svg">
<path d="M237.591 212.384C237.591 151.63 237.591 92.3216 237.591 32.9532C237.591 17.4029 245.092 6.37299 258.445 1.85255C271.639 -2.66788 285.418 2.21427 292.014 14.9318C294.728 20.1152 296.377 26.8656 296.43 32.8928C296.749 119.866 296.643 206.839 296.802 293.873C296.855 307.314 292.919 317.861 281.587 322.924C269.67 328.228 258.286 326.782 248.816 316.113C219.343 282.783 189.924 249.392 160.504 216.001C130.021 181.404 99.5905 146.868 69.107 112.272C67.0322 109.921 64.7978 107.812 61.4994 104.316C61.2866 108.957 61.0206 112.031 61.0206 115.165C61.0206 174.533 60.3822 233.841 61.393 293.15C61.7122 312.135 45.2203 327.083 31.2819 326.661C12.6088 326.119 0.266414 314.004 0.266414 293.692C0.106815 207.743 0.372798 121.735 0.00039882 35.786C-0.052801 20.3562 5.21397 9.26612 17.2371 3.60051C30.0583 -2.36647 43.0923 -1.40213 53.6791 10.1702C73.363 31.6875 92.6745 53.6869 112.252 75.3247C152.897 120.288 193.541 165.191 234.239 210.094C234.771 210.757 235.622 211.119 237.591 212.384Z" fill="white" fill-opacity="0.1"/>
</svg>
