<svg width="49" height="53" viewBox="0 0 49 53" fill="none" xmlns="http://www.w3.org/2000/svg">
<path d="M38.6609 34.2945C38.6609 24.4842 38.6609 14.9075 38.6609 5.32108C38.6609 2.81011 39.8815 1.02907 42.0543 0.299139C44.2012 -0.430794 46.4433 0.357547 47.5167 2.41109C47.9582 3.24808 48.2265 4.3381 48.2352 5.31134C48.2871 19.3553 48.2698 33.3992 48.2958 47.4528C48.3044 49.6232 47.6638 51.3263 45.82 52.1438C43.8809 53.0003 42.0283 52.7667 40.4874 51.0441C35.6916 45.6621 30.9045 40.2703 26.1173 34.8785C21.157 29.2921 16.2054 23.7154 11.2451 18.129C10.9075 17.7494 10.5439 17.4088 10.0072 16.8443C9.97258 17.5937 9.9293 18.0901 9.9293 18.5961C9.9293 28.1826 9.82542 37.7593 9.98989 47.336C10.0418 50.4018 7.35826 52.8154 5.09021 52.7473C2.05171 52.6597 0.043351 50.7035 0.043351 47.4236C0.0173809 33.5452 0.0606618 19.657 6.48962e-05 5.77851C-0.0085918 3.287 0.848419 1.49624 2.80483 0.581388C4.8911 -0.382123 7.01199 -0.226408 8.73468 1.64222C11.9377 5.1167 15.08 8.66904 18.2657 12.163C24.8794 19.4234 31.4931 26.6741 38.1155 33.9247C38.2021 34.0318 38.3406 34.0902 38.6609 34.2945Z" fill="url(#paint0_linear_971_260)"/>
<defs>
<linearGradient id="paint0_linear_971_260" x1="337.338" y1="26.3781" x2="4.6809" y2="26.3781" gradientUnits="userSpaceOnUse">
<stop stop-color="#7E6FFF"/>
<stop offset="0.1638" stop-color="#7889F8"/>
<stop offset="0.5543" stop-color="#6CC1E8"/>
<stop offset="0.8445" stop-color="#65E5DF"/>
<stop offset="1" stop-color="#62F2DB"/>
</linearGradient>
</defs>
</svg>
