<svg width="52" height="57" viewBox="0 0 52 57" fill="none" xmlns="http://www.w3.org/2000/svg">
<path d="M41.1744 36.5242C41.1744 26.0761 41.1744 15.8768 41.1744 5.66704C41.1744 2.99281 42.4744 1.09598 44.7885 0.318588C47.0749 -0.458802 49.4628 0.380793 50.606 2.56785C51.0762 3.45926 51.362 4.62014 51.3712 5.65666C51.4265 20.6137 51.4081 35.5707 51.4358 50.538C51.445 52.8495 50.7627 54.6633 48.799 55.534C46.7338 56.4462 44.7608 56.1974 43.1198 54.3628C38.0121 48.6308 32.9138 42.8885 27.8154 37.1462C22.5326 31.1965 17.259 25.2573 11.9762 19.3076C11.6167 18.9034 11.2294 18.5406 10.6578 17.9394C10.621 18.7376 10.5749 19.2662 10.5749 19.8052C10.5749 30.0149 10.4642 40.2143 10.6394 50.4136C10.6947 53.6787 7.83666 56.2492 5.42115 56.1767C2.1851 56.0834 0.0461695 54 0.0461695 50.5069C0.018511 35.7261 0.0646057 20.935 6.91154e-05 6.1542C-0.0091504 3.50071 0.90358 1.59352 2.98719 0.619188C5.20909 -0.406967 7.46788 -0.241128 9.30257 1.74899C12.7138 5.44937 16.0605 9.23267 19.4532 12.9538C26.497 20.6862 33.5407 28.4083 40.5936 36.1304C40.6858 36.2444 40.8333 36.3066 41.1744 36.5242Z" fill="url(#paint0_linear_962_417)"/>
<defs>
<linearGradient id="paint0_linear_962_417" x1="359.27" y1="28.0931" x2="4.98523" y2="28.0931" gradientUnits="userSpaceOnUse">
<stop stop-color="#7E6FFF"/>
<stop offset="0.1638" stop-color="#7889F8"/>
<stop offset="0.5543" stop-color="#6CC1E8"/>
<stop offset="0.8445" stop-color="#65E5DF"/>
<stop offset="1" stop-color="#62F2DB"/>
</linearGradient>
</defs>
</svg>
